# xmcd
#
# Track frame offsets:
#	150
#	17170
#	32585
#	49480
#	64672
#	81367
#	96860
#	114882
#	130277
#	144360
#	159352
#	173792
#	193022
#	208347
#	222767
#	239687
#	251697
#	267595
#
# Disc length: 3779 seconds
#
# Revision: 0
# Processed by: cddbd v1.4PL0 Copyright (c) Steve Scherf et al.
# Submitted via: EasyCDDAExtractor 5.0.4.1
#
DISCID=0b0ec112
DTITLE=Clifton Chenier - King Of The Bayous
DYEAR=1900
DGENRE=World
TTITLE0=Tu Le Ton Son Ton
TTITLE1=Hard To Love Someone
TTITLE2=Who Can Your Good Man Be
TTITLE3=Zodico Two-Step
TTITLE4=Going La Maison
TTITLE5=I Believe I'll Go Back Home
TTITLE6=Release Me
TTITLE7=Grand Mamou
TTITLE8=Ton Na Na
TTITLE9=I'm Coming Home (To See My Mother)
TTITLE10=Josephine Par Se Ma Femme
TTITLE11=It's Christmas Time
TTITLE12=Coming Home Tomorrow
TTITLE13=Me And My Chauffeur
TTITLE14=Mo Veux Connaitre
TTITLE15=Tired Of Crying Over You
TTITLE16=Clifton's Blues
TTITLE17=Let's Rock A While
EXTD=Arhoolie Productions\n
EXTT0=
EXTT1=
EXTT2=
EXTT3=
EXTT4=
EXTT5=
EXTT6=
EXTT7=
EXTT8=
EXTT9=
EXTT10=
EXTT11=
EXTT12=
EXTT13=
EXTT14=
EXTT15=
EXTT16=
EXTT17=
PLAYORDER=
